<svg width="1178" height="497" viewBox="0 0 1178 497" fill="none" xmlns="http://www.w3.org/2000/svg">
<path d="M26.6 307V66.9H203.7V109.6H78.75V169.1H190.4V211.45H78.75V307H26.6ZM200.684 307L293.084 66.9H357.484L449.884 307H393.534L376.384 259.75H271.734L254.584 307H200.684ZM286.784 217.75H361.334L339.984 158.6C339.051 156.033 337.884 153 336.484 149.5C335.317 145.767 334.034 141.683 332.634 137.25C331.234 132.817 329.834 128.5 328.434 124.3C327.267 119.867 326.101 115.9 324.934 112.4H322.834C321.667 116.833 320.151 122.083 318.284 128.15C316.417 133.983 314.551 139.7 312.684 145.3C310.817 150.667 309.301 155.1 308.134 158.6L286.784 217.75Z" fill="black"/>
<path d="M546.75 423V226.65H469.75V182.9H676.6V226.65H599.25V423H546.75ZM770.969 423V226.65H693.969V182.9H900.819V226.65H823.469V423H770.969ZM1038.81 427.2C1013.38 427.2 991.442 422.65 973.009 413.55C954.576 404.45 940.459 390.683 930.659 372.25C920.859 353.817 915.959 330.717 915.959 302.95C915.959 274.717 920.859 251.5 930.659 233.3C940.459 214.867 954.576 201.217 973.009 192.35C991.442 183.25 1013.38 178.7 1038.81 178.7C1064.71 178.7 1086.76 183.25 1104.96 192.35C1123.39 201.217 1137.51 214.867 1147.31 233.3C1157.11 251.5 1162.01 274.717 1162.01 302.95C1162.01 330.717 1157.11 353.817 1147.31 372.25C1137.51 390.683 1123.39 404.45 1104.96 413.55C1086.76 422.65 1064.71 427.2 1038.81 427.2ZM1038.81 384.5C1050.24 384.5 1060.28 382.867 1068.91 379.6C1077.54 376.333 1084.78 371.433 1090.61 364.9C1096.44 358.367 1100.88 350.433 1103.91 341.1C1106.94 331.533 1108.46 320.683 1108.46 308.55V297.7C1108.46 285.333 1106.94 274.367 1103.91 264.8C1100.88 255.233 1096.44 247.3 1090.61 241C1084.78 234.467 1077.54 229.567 1068.91 226.3C1060.28 223.033 1050.24 221.4 1038.81 221.4C1027.61 221.4 1017.69 223.033 1009.06 226.3C1000.43 229.567 993.192 234.467 987.359 241C981.526 247.3 977.092 255.233 974.059 264.8C971.259 274.367 969.859 285.333 969.859 297.7V308.55C969.859 320.683 971.259 331.533 974.059 341.1C977.092 350.433 981.526 358.367 987.359 364.9C993.192 371.433 1000.43 376.333 1009.06 379.6C1017.69 382.867 1027.61 384.5 1038.81 384.5Z" fill="black"/>
<rect x="461" y="63" width="717" height="65" fill="black"/>
<rect y="358" width="452" height="65" fill="black"/>
</svg>
